# xmcd
#
# Track frame offsets:
#	150
#	17920
#	31927
#	50055
#	68898
#	82237
#	94207
#	113060
#	128232
#	142017
#	154219
#
# Disc length: 2232 seconds
#
# Revision: 0
# Processed by: cddbd v1.5.2PL0 Copyright (c) Steve Scherf et al.
# Submitted via: EasyCDDAExtractor 15.2.5.1
#
DISCID=9d08b60b
DTITLE=BR549 - Dog Days
DYEAR=2006
DGENRE=Country
TTITLE0=Poison
TTITLE1=After The Hurricane
TTITLE2=Lower Broad St. Blues
TTITLE3=Leave It Alone
TTITLE4=Bottom Of Priority
TTITLE5=The Devil and Me
TTITLE6=I'm Goin' Down
TTITLE7=You Are The Queen
TTITLE8=Cajun Persuasion
TTITLE9=A-1 On The Juke Box
TTITLE10=Let Jesus Make You Breakfast
EXTD=
EXTT0=
EXTT1=
EXTT2=
EXTT3=
EXTT4=
EXTT5=
EXTT6=
EXTT7=
EXTT8=
EXTT9=
EXTT10=
PLAYORDER=
